# xmcd
#
# Track frame offsets:
# 150
# 14756
# 25637
# 43492
# 57467
# 71551
# 85198
# 99835
# 112076
# 124026
# 135228
# 145270
# 157146
# 171678
# 185460
# 205310
# 221681
# 233148
# 244697
# 255212
#
# Disc length: 3522 seconds
#
# Revision: 1
# Processed by: cddbd v1.5.1PL0 Copyright (c) Steve Scherf et al.
# Submitted via: CedeCatalogueitor 2.6.0.5 http://personales.ya.com/cdcatalogueitor
#
DISCID=250dc014
DTITLE=VARIOS - Los Veinte Del Siglo Veinte BLUES
DYEAR=1999
DGENRE=
TTITLE0=MUDDY WATERS  "Rock Me"
TTITLE1=SMOKEY HOGG  "When I've Been Drinkin' "
TTITLE2=BROWNIE McGHEE WITH SONNY TERRY  "Livin' With The Blues"
TTITLE3=JOHN LEE HOOKER  "In The Mood" (Three Voice Original Mood)
TTITLE4=JIMMY ROGERS  "That's All Right"
TTITLE5=T-BONE WALKER  "Call It Stormy Monday But Tuesday Is Just As Bad"
TTITLE6=LOWELL FULSON  "Good Woman Blues"
TTITLE7=SONNY TERRY  "Whoopin' The Blues"
TTITLE8=SNOOKS EAGLIN  "By The Water"
TTITLE9=JULIA LEE and HER BOYFRIENDS  "Decent Woman Blues"
TTITLE10=WALTER BROWN "Lyin' Womam Blues"
TTITLE11=GUITAR SLIM and HIS BAND  "Bad Luck Is On Me" (aka Woman Troubles)
TTITLE12=CHARLES BROWN  "Homesick Blues"
TTITLE13=FLOYD DIXON  "Married Woman"
TTITLE14=JAMES COTTON  "She Moves Me"
TTITLE15=SON HOUSE  "Death Letter Blues"
TTITLE16=BIG JOE WILLIAMS  "Pearly Mae"
TTITLE17=LI'L SON JACKSON  "Tiket Agent Blues"
TTITLE18=MEMPHIS SLIM  "How Long"
TTITLE19=ROY BROWN  "Let The Four Winds Blow"
EXTD=
EXTT0=
EXTT1=
EXTT2=
EXTT3=
EXTT4=
EXTT5=
EXTT6=
EXTT7=
EXTT8=
EXTT9=
EXTT10=
EXTT11=
EXTT12=
EXTT13=
EXTT14=
EXTT15=
EXTT16=
EXTT17=
EXTT18=
EXTT19=
PLAYORDER=
